#!OML:ASF I:\Actors\actors\Patient Classification 2\Patient 1\Session 1\actor1.ASF
:FULLY-SPECIFIED
:DEGREES
497
root 1.00614 17.1708 6.13097 -10.0842 -36.6515 3.39474
lowerback 16.7564 -1.09501 -14.9542
upperback 3.4078 -4.40473 -3.72717
thorax -4.8711 -2.04218 5.26064
lowerneck -8.40702 -8.98461 -14.4756
upperneck 33.2483 -14.5743 10.7187
head 14.8619 -7.20591 4.49364
rclavicle 3.49861e-014 4.77083e-015
rhumerus 15.8839 -10.685 -35.7097
rradius 39.0003
rwrist 8.35174
rhand 11.1548 -33.4761
rfingers 7.12502
rthumb 36.2208 -59.7381
lclavicle 3.49861e-014 4.77083e-015
lhumerus -8.56819 -64.693 107.594
lradius 69.874
lwrist -15.9646
lhand 20.8993 -20.0474
lfingers 7.12502
lthumb 45.3719 3.30415
rfemur 28.0291 -19.7457 4.19109
rtibia -45.9803
rfoot 32.8948 -21.0857
rtoes 26.0443
lfemur 39.239 14.3676 -24.1515
ltibia -36.5615
lfoot 4.56542 19.6765
ltoes -13.5174
498
root 1.02328 17.1597 6.13682 -10.3568 -36.8334 3.70126
lowerback 16.6871 -1.13095 -15.2614
upperback 3.34649 -4.51447 -3.91104
thorax -4.87148 -2.0905 5.24502
lowerneck -8.30233 -8.93273 -14.2016
upperneck 33.2139 -14.6158 10.8107
head 14.8094 -7.19163 4.48226
rclavicle -4.25399e-014 -2.06736e-014
rhumerus 16.2431 -11.0309 -35.8118
rradius 39.7724
rwrist 8.14581
rhand 11.7273 -33.8222
rfingers 7.12502
rthumb 36.7628 -59.9476
lclavicle -4.25399e-014 -2.06736e-014
lhumerus -8.02676 -64.502 107.106
lradius 71.2887
lwrist -16.1726
lhand 22.0712 -20.0359
lfingers 7.12502
lthumb 46.4595 2.86488
rfemur 28.1735 -19.811 3.93702
rtibia -46.3366
rfoot 33.2542 -21.5711
rtoes 27.0042
lfemur 39.3078 14.4345 -24.4938
ltibia -36.5264
lfoot 4.36995 19.8929
ltoes -12.5974
499
root 1.04005 17.1589 6.14008 -10.3178 -36.9526 3.66175
lowerback 16.5763 -1.21458 -15.3344
upperback 3.27809 -4.62907 -3.99927
thorax -4.86637 -2.1428 5.20451
lowerneck -8.20604 -8.89272 -14.0018
upperneck 33.2018 -14.6858 10.9701
head 14.7897 -7.19123 4.50671
rclavicle -4.59193e-014 -2.38542e-014
rhumerus 16.6849 -11.4671 -35.946
rradius 40.3154
rwrist 7.83297
rhand 12.1789 -34.0155
rfingers 7.12502
rthumb 37.1899 -60.0307
lclavicle -4.59193e-014 -2.38542e-014
lhumerus -7.52414 -64.406 106.594
lradius 72.7355
lwrist -16.3939
lhand 23.8581 -20.4646
lfingers 7.12502
lthumb 48.1107 1.69642
rfemur 28.1931 -19.7972 3.98519
rtibia -46.6159
rfoot 33.4885 -22.1584
rtoes 27.3771
lfemur 39.2828 14.4577 -24.5467
ltibia -36.5717
lfoot 4.35424 20.0219
ltoes -12.151
500
root 1.05625 17.1654 6.14369 -10.1021 -37.0143 3.459
lowerback 16.6497 -1.31339 -15.4511
upperback 3.04893 -4.81051 -3.90664
thorax -5.1052 -2.19767 5.41119
lowerneck -8.06254 -8.81616 -14.0215
upperneck 33.2817 -14.6685 11.109
head 14.8079 -7.18553 4.58081
rclavicle 7.67309e-014 1.90833e-014
rhumerus 17.1254 -11.7049 -35.955
rradius 40.8236
rwrist 7.69258
rhand 12.5767 -33.9375
rfingers 7.12502
rthumb 37.5659 -59.8535
lclavicle 7.67309e-014 1.90833e-014
lhumerus -7.2862 -64.2309 106.436
lradius 74.1493
lwrist -16.5016
lhand 24.408 -20.1148
lfingers 7.12502
lthumb 48.6171 1.80485
rfemur 28.1218 -19.7616 4.1679
rtibia -46.8482
rfoot 33.7491 -22.7151
rtoes 27.4885
lfemur 39.1934 14.4238 -24.4789
ltibia -36.6926
lfoot 4.46109 20.0951
ltoes -11.7631
501
root 1.07289 17.1623 6.14031 -9.98693 -37.0636 3.46769
lowerback 16.677 -1.39218 -15.6727
upperback 2.8861 -4.97647 -3.90982
thorax -5.24813 -2.25474 5.56319
lowerneck -7.98775 -8.73594 -13.8243
upperneck 33.2555 -14.6361 11.1841
head 14.7592 -7.14802 4.58806
rclavicle -1.88845e-015 1.59028e-014
rhumerus 17.566 -12.335 -36.2953
rradius 41.3846
rwrist 8.23168
rhand 12.9755 -33.0046
rfingers 7.12502
rthumb 37.9428 -58.8194
lclavicle -1.88845e-015 1.59028e-014
lhumerus -6.70501 -64.2416 105.833
lradius 75.4971
lwrist -16.3614
lhand 23.6725 -18.9932
lfingers 7.12502
lthumb 47.9397 3.24775
rfemur 27.9613 -19.7674 4.24116
rtibia -47.0585
rfoot 34.0198 -23.4048
rtoes 28.2185
lfemur 39.0642 14.4311 -24.5816
ltibia -36.8415
lfoot 4.60078 20.1331
ltoes -11.23
